<?xml version="1.0" encoding="UTF-8"?>
<!DOCTYPE svg PUBLIC "-//W3C//DTD SVG 1.1//EN" "http://www.w3.org/Graphics/SVG/1.1/DTD/svg11.dtd">
<svg xmlns="http://www.w3.org/2000/svg" version="1.1" width="306px" height="62px" style="shape-rendering:geometricPrecision; text-rendering:geometricPrecision; image-rendering:optimizeQuality; fill-rule:evenodd; clip-rule:evenodd" xmlns:xlink="http://www.w3.org/1999/xlink">
<g><path style="opacity:1" fill="#fdfdfd" d="M -0.5,-0.5 C 101.5,-0.5 203.5,-0.5 305.5,-0.5C 305.5,20.1667 305.5,40.8333 305.5,61.5C 203.5,61.5 101.5,61.5 -0.5,61.5C -0.5,40.8333 -0.5,20.1667 -0.5,-0.5 Z"/></g>
<g><path style="opacity:1" fill="#b3b3b3" d="M 9.5,17.5 C 17.6758,16.1791 26.0091,16.1791 34.5,17.5C 34.3764,18.1067 34.0431,18.44 33.5,18.5C 25.6841,17.5076 17.6841,17.1743 9.5,17.5 Z"/></g>
<g><path style="opacity:1" fill="#b0b0b0" d="M 161.5,18.5 C 152.014,17.5062 142.348,17.1729 132.5,17.5C 142.088,16.3455 152.421,16.1789 163.5,17C 162.956,17.7172 162.289,18.2172 161.5,18.5 Z"/></g>
<g><path style="opacity:1" fill="#b1b1b1" d="M 164.5,17.5 C 173.342,16.1782 182.342,16.1782 191.5,17.5C 191.376,18.1067 191.043,18.44 190.5,18.5C 182.016,17.507 173.349,17.1736 164.5,17.5 Z"/></g>
<g><path style="opacity:1" fill="#000000" d="M 195.5,16.5 C 204.5,16.5 213.5,16.5 222.5,16.5C 222.5,24.8333 222.5,33.1667 222.5,41.5C 200.906,46.5692 191.906,38.2359 195.5,16.5 Z"/></g>
<g><path style="opacity:1" fill="#010101" d="M 9.5,17.5 C 17.6841,17.1743 25.6841,17.5076 33.5,18.5C 32.7109,18.7828 32.0442,19.2828 31.5,20C 25.8333,20.3333 20.1667,20.6667 14.5,21C 13.5769,23.0408 13.2436,25.2075 13.5,27.5C 20.1667,27.5 26.8333,27.5 33.5,27.5C 33.6653,31.1817 33.4986,34.8484 33,38.5C 32.2917,39.3805 31.4584,40.0472 30.5,40.5C 22.747,40.799 15.0804,40.4657 7.5,39.5C 7.38929,38.8826 7.05596,38.3826 6.5,38C 12.8333,37.6667 19.1667,37.3333 25.5,37C 26.4231,34.9592 26.7564,32.7925 26.5,30.5C 19.8333,30.5 13.1667,30.5 6.5,30.5C 5.73803,25.6069 6.73803,21.2736 9.5,17.5 Z"/></g>
<g><path style="opacity:1" fill="#020202" d="M 36.5,17.5 C 41.3444,20.7557 46.3444,23.7557 51.5,26.5C 56.5467,23.8908 61.38,20.8908 66,17.5C 66.4997,25.4931 66.6664,33.4931 66.5,41.5C 64.1667,41.5 61.8333,41.5 59.5,41.5C 59.6658,36.8215 59.4992,32.1548 59,27.5C 56.5426,28.9778 54.0426,30.3112 51.5,31.5C 49.0413,30.4358 46.708,29.1025 44.5,27.5C 43.5067,32.1196 43.1734,36.7863 43.5,41.5C 41.1667,41.5 38.8333,41.5 36.5,41.5C 36.5,33.5 36.5,25.5 36.5,17.5 Z"/></g>
<g><path style="opacity:1" fill="#000000" d="M 69.5,17.5 C 78.5,17.5 87.5,17.5 96.5,17.5C 96.5,25.1667 96.5,32.8333 96.5,40.5C 94.5,40.5 92.5,40.5 90.5,40.5C 90.5,37.1667 90.5,33.8333 90.5,30.5C 85.8333,30.5 81.1667,30.5 76.5,30.5C 76.5,33.8333 76.5,37.1667 76.5,40.5C 74.1667,40.5 71.8333,40.5 69.5,40.5C 69.5,32.8333 69.5,25.1667 69.5,17.5 Z"/></g>
<g><path style="opacity:1" fill="#a8a8a8" d="M 101.5,17.5 C 101.5,25.1667 101.5,32.8333 101.5,40.5C 103.833,40.5 106.167,40.5 108.5,40.5C 106.052,41.4731 103.385,41.8064 100.5,41.5C 100.174,33.3159 100.508,25.3159 101.5,17.5 Z"/></g>
<g><path style="opacity:1" fill="#010101" d="M 101.5,17.5 C 110.5,17.5 119.5,17.5 128.5,17.5C 128.5,21.5 128.5,25.5 128.5,29.5C 126.076,29.1924 123.743,29.5258 121.5,30.5C 124.218,33.5454 126.884,36.5454 129.5,39.5C 127.393,40.4682 125.059,40.8016 122.5,40.5C 118.365,36.1941 114.365,31.6941 110.5,27C 114.486,26.5012 118.486,26.3345 122.5,26.5C 122.5,24.5 122.5,22.5 122.5,20.5C 117.833,20.5 113.167,20.5 108.5,20.5C 108.5,27.1667 108.5,33.8333 108.5,40.5C 106.167,40.5 103.833,40.5 101.5,40.5C 101.5,32.8333 101.5,25.1667 101.5,17.5 Z"/></g>
<g><path style="opacity:1" fill="#000000" d="M 132.5,17.5 C 142.348,17.1729 152.014,17.5062 161.5,18.5C 161.389,19.1174 161.056,19.6174 160.5,20C 157.183,20.4983 153.85,20.665 150.5,20.5C 150.5,27.5 150.5,34.5 150.5,41.5C 148.5,41.5 146.5,41.5 144.5,41.5C 144.5,34.5 144.5,27.5 144.5,20.5C 141.15,20.665 137.817,20.4983 134.5,20C 133.619,19.2917 132.953,18.4584 132.5,17.5 Z"/></g>
<g><path style="opacity:1" fill="#010101" d="M 164.5,17.5 C 173.349,17.1736 182.016,17.507 190.5,18.5C 190.389,19.1174 190.056,19.6174 189.5,20C 183.843,20.4994 178.176,20.6661 172.5,20.5C 171.51,26.31 171.177,32.31 171.5,38.5C 178.022,38.1765 184.355,38.5098 190.5,39.5C 189.711,39.7828 189.044,40.2828 188.5,41C 180.507,41.4997 172.507,41.6664 164.5,41.5C 164.5,33.5 164.5,25.5 164.5,17.5 Z"/></g>
<g><path style="opacity:1" fill="#020202" d="M 225.5,17.5 C 230.344,20.7557 235.344,23.7557 240.5,26.5C 245.547,23.8908 250.38,20.8908 255,17.5C 255.5,25.4931 255.666,33.4931 255.5,41.5C 253.167,41.5 250.833,41.5 248.5,41.5C 248.666,36.8215 248.499,32.1548 248,27.5C 245.543,28.9778 243.043,30.3112 240.5,31.5C 238.041,30.4358 235.708,29.1025 233.5,27.5C 232.507,32.1196 232.173,36.7863 232.5,41.5C 230.167,41.5 227.833,41.5 225.5,41.5C 225.5,33.5 225.5,25.5 225.5,17.5 Z"/></g>
<g><path style="opacity:1" fill="#000000" d="M 258.5,17.5 C 267.5,17.5 276.5,17.5 285.5,17.5C 285.5,22.5 285.5,27.5 285.5,32.5C 278.833,32.5 272.167,32.5 265.5,32.5C 265.5,35.1667 265.5,37.8333 265.5,40.5C 263.167,40.5 260.833,40.5 258.5,40.5C 258.5,32.8333 258.5,25.1667 258.5,17.5 Z"/></g>
<g><path style="opacity:1" fill="#cacaca" d="M 258.5,17.5 C 267.652,16.5064 276.985,16.1731 286.5,16.5C 286.821,22.0262 286.488,27.3595 285.5,32.5C 285.5,27.5 285.5,22.5 285.5,17.5C 276.5,17.5 267.5,17.5 258.5,17.5 Z"/></g>
<g><path style="opacity:1" fill="#fdfdfd" d="M 206.5,37.5 C 205.026,36.5637 204.026,35.2303 203.5,33.5C 203.5,29.1667 203.5,24.8333 203.5,20.5C 207.167,20.5 210.833,20.5 214.5,20.5C 214.5,26.1667 214.5,31.8333 214.5,37.5C 211.833,37.5 209.167,37.5 206.5,37.5 Z"/></g>
<g><path style="opacity:1" fill="#cccccc" d="M 206.5,37.5 C 209.167,37.5 211.833,37.5 214.5,37.5C 214.5,31.8333 214.5,26.1667 214.5,20.5C 210.833,20.5 207.167,20.5 203.5,20.5C 203.5,24.8333 203.5,29.1667 203.5,33.5C 202.514,29.03 202.181,24.3633 202.5,19.5C 206.833,19.5 211.167,19.5 215.5,19.5C 215.5,25.8333 215.5,32.1667 215.5,38.5C 212.287,38.81 209.287,38.4767 206.5,37.5 Z"/></g>
<g><path style="opacity:1" fill="#f1f1f1" d="M 265.5,20.5 C 269.833,20.5 274.167,20.5 278.5,20.5C 278.5,23.5 278.5,26.5 278.5,29.5C 274.167,29.5 269.833,29.5 265.5,29.5C 265.5,26.5 265.5,23.5 265.5,20.5 Z"/></g>
<g><path style="opacity:1" fill="#bbbbbb" d="M 77.5,20.5 C 77.5,22.5 77.5,24.5 77.5,26.5C 81.5,26.5 85.5,26.5 89.5,26.5C 89.5,24.5 89.5,22.5 89.5,20.5C 90.4682,22.6074 90.8016,24.9407 90.5,27.5C 85.8333,27.5 81.1667,27.5 76.5,27.5C 76.1984,24.9407 76.5318,22.6074 77.5,20.5 Z"/></g>
<g><path style="opacity:1" fill="#fefffe" d="M 77.5,20.5 C 81.5,20.5 85.5,20.5 89.5,20.5C 89.5,22.5 89.5,24.5 89.5,26.5C 85.5,26.5 81.5,26.5 77.5,26.5C 77.5,24.5 77.5,22.5 77.5,20.5 Z"/></g>
<g><path style="opacity:1" fill="#9e9e9e" d="M 69.5,17.5 C 78.6517,16.5064 87.985,16.1731 97.5,16.5C 97.5,24.8333 97.5,33.1667 97.5,41.5C 94.8333,41.5 92.1667,41.5 89.5,41.5C 89.5,38.1667 89.5,34.8333 89.5,31.5C 85.5,31.5 81.5,31.5 77.5,31.5C 77.5,34.8333 77.5,38.1667 77.5,41.5C 74.6146,41.8064 71.9479,41.4731 69.5,40.5C 71.8333,40.5 74.1667,40.5 76.5,40.5C 76.5,37.1667 76.5,33.8333 76.5,30.5C 81.1667,30.5 85.8333,30.5 90.5,30.5C 90.5,33.8333 90.5,37.1667 90.5,40.5C 92.5,40.5 94.5,40.5 96.5,40.5C 96.5,32.8333 96.5,25.1667 96.5,17.5C 87.5,17.5 78.5,17.5 69.5,17.5 Z"/></g>
<g><path style="opacity:1" fill="#c5c5c5" d="M 285.5,32.5 C 279.355,33.4902 273.022,33.8235 266.5,33.5C 266.5,36.1667 266.5,38.8333 266.5,41.5C 263.615,41.8064 260.948,41.4731 258.5,40.5C 260.833,40.5 263.167,40.5 265.5,40.5C 265.5,37.8333 265.5,35.1667 265.5,32.5C 272.167,32.5 278.833,32.5 285.5,32.5 Z"/></g>
<g><path style="opacity:1" fill="#b0b0b0" d="M 172.5,20.5 C 172.5,26.1667 172.5,31.8333 172.5,37.5C 178.868,37.1703 185.202,37.5037 191.5,38.5C 191.376,39.1067 191.043,39.44 190.5,39.5C 184.355,38.5098 178.022,38.1765 171.5,38.5C 171.177,32.31 171.51,26.31 172.5,20.5 Z"/></g>
<g><path style="opacity:1" fill="#b3b3b3" d="M 7.5,39.5 C 15.0804,40.4657 22.747,40.799 30.5,40.5C 26.8485,41.1655 23.0152,41.4988 19,41.5C 14.771,41.4898 10.9377,40.8232 7.5,39.5 Z"/></g>
<g><path style="opacity:1" fill="#7e7e7e" d="M 129.5,39.5 C 130.043,39.56 130.376,39.8933 130.5,40.5C 127.691,41.8003 125.024,41.8003 122.5,40.5C 125.059,40.8016 127.393,40.4682 129.5,39.5 Z"/></g>
</svg>
